<?xml version="1.0" standalone="no"?>
<svg viewBox="0 0 200 200" xmlns="http://www.w3.org/2000/svg">
  <path fill="#9EF0F0" d="M22.1,-37.3C28.9,-29.9,35.1,-24.4,43.7,-16.7C52.3,-9,63.3,0.8,68.7,14.6C74.1,28.4,73.9,46.1,65,56.2C56.1,66.3,38.5,68.6,23.3,67.8C8.1,67,-4.6,63,-20.6,62C-36.6,61,-55.9,63.1,-69.3,55.6C-82.7,48.1,-90.2,31.1,-84.3,17.2C-78.3,3.3,-59,-7.4,-51.4,-23.2C-43.7,-39,-47.8,-59.8,-41.2,-67.3C-34.6,-74.8,-17.3,-68.9,-4.8,-61.3C7.6,-53.8,15.2,-44.6,22.1,-37.3Z" transform="translate(100 100)" />
</svg>
